#!OML:ASF E:\motion texture\Top Level 1\Subject 1\Session 1\male.ASF
:FULLY-SPECIFIED
:DEGREES
467
root -17.7865 18.1316 3.32398 154.061 -74.0102 -146.908
lowerback 0.588571 -0.385743 7.0275
upperback -1.77563 -0.490437 4.95264
thorax -2.17678 -0.399405 1.19283
lowerneck -13.4951 -8.69907 -10.1933
upperneck 10.183 -10.7959 7.31195
head 6.24369 -5.12701 2.87913
rclavicle 5.41688e-015 1.43125e-014
rhumerus -9.13474 -4.61937 -75.3165
rradius 35.6192
rwrist 9.47
rhand -19.4636 -29.6348
rfingers 7.12502
rthumb 6.85768 -419.504
lclavicle 5.41688e-015 1.43125e-014
lhumerus -29.846 -5.11815 91.5443
lradius 50.8804
lwrist -17.0258
lhand -10.2871 19.2307
lfingers 7.12502
lthumb 15.7072 48.6132
rfemur -8.76273 3.6817 29.5287
rtibia 15.9196
rfoot -7.90045 -7.86901
rtoes 15.4306
lfemur -26.6904 2.59383 -5.96261
ltibia 48.4591
lfoot -5.98093 7.55637
ltoes -17.4211
468
root -17.9082 18.1288 3.29688 153.802 -74.0083 -146.587
lowerback 0.541824 -0.303108 7.13085
upperback -1.80156 -0.381877 4.91566
thorax -2.17515 -0.347618 1.09443
lowerneck -13.4253 -8.77151 -10.2403
upperneck 10.1599 -10.8985 7.3607
head 6.23931 -5.17671 2.89217
rclavicle 2.48481e-015 -4.13472e-014
rhumerus -8.7054 -4.03382 -75.25
rradius 36.6263
rwrist 9.18587
rhand -19.5658 -29.604
rfingers 7.12502
rthumb 6.75896 -419.476
lclavicle 2.48481e-015 -4.13472e-014
lhumerus -30.1649 -5.18261 91.7109
lradius 51.4076
lwrist -16.8037
lhand -10.2085 19.2088
lfingers 7.12502
lthumb 15.7829 48.5853
rfemur -8.28299 3.66303 29.6387
rtibia 15.7804
rfoot -8.17732 -7.91653
rtoes 15.0643
lfemur -27.1062 2.62585 -5.76608
ltibia 47.2034
lfoot -6.27497 7.82682
ltoes -17.0423
469
root -18.0307 18.1253 3.27079 153.571 -74.0123 -146.285
lowerback 0.487192 -0.223918 7.22532
upperback -1.83025 -0.278751 4.87803
thorax -2.17157 -0.298393 1.0005
lowerneck -13.3595 -8.84222 -10.2871
upperneck 10.1348 -10.9987 7.41162
head 6.23498 -5.22496 2.90604
rclavicle 4.22417e-016 2.38542e-015
rhumerus -8.31907 -3.47479 -75.1735
rradius 37.6613
rwrist 8.92864
rhand -19.6591 -29.5646
rfingers 7.12502
rthumb 6.66891 -419.44
lclavicle 4.22417e-016 2.38542e-015
lhumerus -30.4912 -5.22879 91.8652
lradius 51.9184
lwrist -16.5696
lhand -10.1307 19.2119
lfingers 7.12502
lthumb 15.8578 48.5826
rfemur -7.81652 3.64502 29.7342
rtibia 15.6496
rfoot -8.45037 -7.9677
rtoes 14.6659
lfemur -27.4865 2.64333 -5.57653
ltibia 45.8542
lfoot -6.52888 8.0696
ltoes -16.6823
470
root -18.154 18.1211 3.24572 153.358 -74.022 -145.993
lowerback 0.42556 -0.14878 7.31311
upperback -1.8612 -0.181828 4.84045
thorax -2.16612 -0.252158 0.91061
lowerneck -13.3023 -8.91169 -10.3307
upperneck 10.1111 -11.0966 7.46003
head 6.23208 -5.27198 2.91856
rclavicle -1.59028e-015 -3.97569e-015
rhumerus -7.97506 -2.94114 -75.0908
rradius 38.7232
rwrist 8.69671
rhand -19.7471 -29.5167
rfingers 7.12502
rthumb 6.58396 -419.394
lclavicle -1.59028e-015 -3.97569e-015
lhumerus -30.8227 -5.25954 92.0067
lradius 52.4141
lwrist -16.323
lhand -10.0599 19.2407
lfingers 7.12502
lthumb 15.926 48.6059
rfemur -7.36379 3.63028 29.8188
rtibia 15.5292
rfoot -8.72075 -8.025
rtoes 14.2372
lfemur -27.834 2.64632 -5.39081
ltibia 44.4265
lfoot -6.74073 8.28581
ltoes -16.34
471
root -18.2782 18.1162 3.22162 153.16 -74.0376 -145.71
lowerback 0.357948 -0.0779489 7.39379
upperback -1.89429 -0.0913446 4.80308
thorax -2.15935 -0.20903 0.825139
lowerneck -13.2498 -8.97898 -10.3727
upperneck 10.0851 -11.1912 7.50887
head 6.22894 -5.31727 2.93121
rclavicle -1.04113e-014 -4.69132e-014
rhumerus -7.67261 -2.43076 -75.0039
rradius 39.8095
rwrist 8.49289
rhand -19.8294 -29.4604
rfingers 7.12502
rthumb 6.50453 -419.341
lclavicle -1.04113e-014 -4.69132e-014
lhumerus -31.1568 -5.27842 92.1364
lradius 52.8931
lwrist -16.0635
lhand -9.99325 19.2962
lfingers 7.12502
lthumb 15.9901 48.6563
rfemur -6.92359 3.61924 29.8923
rtibia 15.4211
rfoot -8.98882 -8.08802
rtoes 13.7773
lfemur -28.1489 2.63458 -5.21001
ltibia 42.9332
lfoot -6.90934 8.47875
ltoes -16.0365
472
root -18.4033 18.1105 3.19851 152.97 -74.0597 -145.428
lowerback 0.284455 -0.0118544 7.469
upperback -1.92917 -0.00790507 4.76653
thorax -2.15104 -0.169338 0.743862
lowerneck -13.202 -9.04456 -10.4141
upperneck 10.0574 -11.2832 7.55844
head 6.22593 -5.36106 2.94414
rclavicle -1.19271e-014 5.48646e-014
rhumerus -7.41237 -1.9451 -74.9153
rradius 40.9216
rwrist 8.32081
rhand -19.9023 -29.399
rfingers 7.12502
rthumb 6.43416 -419.281
lclavicle -1.19271e-014 5.48646e-014
lhumerus -31.4936 -5.28896 92.2555
lradius 53.3596
lwrist -15.7919
lhand -9.9305 19.3811
lfingers 7.12502
lthumb 16.0506 48.7363
rfemur -6.49596 3.61276 29.9573
rtibia 15.3266
rfoot -9.25426 -8.15877
rtoes 13.2823
lfemur -28.4341 2.60701 -5.03241
ltibia 41.3897
lfoot -7.03776 8.65272
ltoes -15.7468
473
root -18.5294 18.104 3.17641 152.78 -74.0878 -145.142
lowerback 0.206795 0.0493241 7.53975
upperback -1.96536 0.0684116 4.73114
thorax -2.14173 -0.133146 0.666562
lowerneck -13.1598 -9.10823 -10.455
upperneck 10.0292 -11.3721 7.60836
head 6.22344 -5.40322 2.95726
rclavicle 1.81888e-014 6.36111e-015
rhumerus -7.19387 -1.48204 -74.8265
rradius 42.0573
rwrist 8.17949
rhand -19.9676 -29.3293
rfingers 7.12502
rthumb 6.37112 -419.214
lclavicle 1.81888e-014 6.36111e-015
lhumerus -31.8283 -5.29547 92.3647
lradius 53.8107
lwrist -15.5083
lhand -9.88039 19.4926
lfingers 7.12502
lthumb 16.0988 48.8439
rfemur -6.07949 3.61046 30.015
rtibia 15.248
rfoot -9.51785 -8.23676
rtoes 12.7504
lfemur -28.6896 2.5634 -4.85815
ltibia 39.8104
lfoot -7.12453 8.81168
ltoes -15.4849
474
root -18.6565 18.0968 3.15537 152.584 -74.1241 -144.847
lowerback 0.126036 0.10455 7.60679
upperback -2.00146 0.136277 4.69661
thorax -2.13071 -0.101072 0.59251
lowerneck -13.1261 -9.17064 -10.4943
upperneck 10.0017 -11.4586 7.65758
head 6.22236 -5.44398 2.96985
rclavicle 3.45885e-014 5.00937e-014
rhumerus -7.01453 -1.04268 -74.7407
rradius 43.2146
rwrist 8.06866
rhand -20.0268 -29.2516
rfingers 7.12502
rthumb 6.31393 -419.138
lclavicle 3.45885e-014 5.00937e-014
lhumerus -32.1593 -5.30088 92.4649
lradius 54.2503
lwrist -15.2139
lhand -9.8415 19.6318
lfingers 7.12502
lthumb 16.1363 48.9801
rfemur -5.67345 3.61187 30.0658
rtibia 15.1875
rfoot -9.78057 -8.32326
rtoes 12.1822
lfemur -28.9171 2.50053 -4.68794
ltibia 38.2105
lfoot -7.17414 8.95811
ltoes -15.2427
475
root -18.7845 18.0888 3.13532 152.384 -74.1663 -144.546
lowerback 0.0406702 0.154453 7.6688
upperback -2.03817 0.196354 4.66412
thorax -2.11787 -0.0727842 0.523635
lowerneck -13.0957 -9.23082 -10.5337
upperneck 9.97208 -11.5417 7.70706
head 6.22093 -5.48297 2.98285
rclavicle -4.19933e-015 -9.54166e-015
rhumerus -6.87552 -0.624495 -74.6591
rradius 44.3935
rwrist 7.98795
rhand -20.0778 -29.1615
rfingers 7.12502
rthumb 6.26469 -419.049
lclavicle -4.19933e-015 -9.54166e-015
lhumerus -32.4846 -5.30746 92.558
lradius 54.6776
lwrist -14.9111
lhand -9.81182 19.8002
lfingers 7.12502
lthumb 16.1649 49.1462
rfemur -5.28045 3.61834 30.1108
rtibia 15.1491
rfoot -10.0416 -8.4169
rtoes 11.5708
lfemur -29.1199 2.42289 -4.52163
ltibia 36.6039
lfoot -7.18969 9.09165
ltoes -15.028
476
root -18.9137 18.08 3.11626 152.174 -74.2149 -144.234
lowerback -0.0460057 0.199007 7.72657
upperback -2.07488 0.24898 4.63339
thorax -2.10448 -0.0481385 0.459192
lowerneck -13.0706 -9.28969 -10.5731
upperneck 9.94172 -11.6223 7.75708
head 6.22003 -5.52066 2.99609
rclavicle -1.43373e-014 4.13472e-014
rhumerus -6.7763 -0.228091 -74.5828
rradius 45.5923
rwrist 7.93531
rhand -20.1212 -29.0611
rfingers 7.12502
rthumb 6.22278 -418.95
lclavicle -1.43373e-014 4.13472e-014
lhumerus -32.8023 -5.32098 92.6459
lradius 55.0936
lwrist -14.6008
lhand -9.78936 19.9996
lfingers 7.12502
lthumb 16.1865 49.3438
rfemur -4.89833 3.63113 30.1511
rtibia 15.1346
rfoot -10.3009 -8.52008
rtoes 10.9165
lfemur -29.2979 2.33015 -4.35971
ltibia 35.0044
lfoot -7.17174 9.21021
ltoes -14.8459
